<svg xmlns="http://www.w3.org/2000/svg" viewBox="0 0 64 64" width="64" height="64">
  <title>YaST Control Panel</title>
  <desc>An industrial control panel icon with gauges, knobs, switches and levers for system configuration</desc>

  <!-- Panel base - brushed metal frame -->
  <rect x="2" y="2" width="60" height="60" rx="6" fill="#4A5568"/>
  <rect x="3" y="3" width="58" height="58" rx="5" fill="#2D3748"/>
  <!-- Inner panel -->
  <rect x="6" y="6" width="52" height="52" rx="3" fill="#1A202C"/>

  <!-- Corner screws -->
  <circle cx="10" cy="10" r="1.5" fill="#718096"/>
  <line x1="9" y1="10" x2="11" y2="10" stroke="#A0AEC0" stroke-width="0.5"/>
  <circle cx="54" cy="10" r="1.5" fill="#718096"/>
  <line x1="53" y1="10" x2="55" y2="10" stroke="#A0AEC0" stroke-width="0.5"/>
  <circle cx="10" cy="54" r="1.5" fill="#718096"/>
  <line x1="9" y1="54" x2="11" y2="54" stroke="#A0AEC0" stroke-width="0.5"/>
  <circle cx="54" cy="54" r="1.5" fill="#718096"/>
  <line x1="53" y1="54" x2="55" y2="54" stroke="#A0AEC0" stroke-width="0.5"/>

  <!-- ============ TOP SECTION: LCD + Gauge (y=10-28) ============ -->
  <!-- Digital LCD display (left) -->
  <rect x="9" y="14" width="20" height="14" rx="1.5" fill="#0D1B0A" stroke="#4A5568" stroke-width="0.8"/>
  <rect x="10" y="15" width="18" height="12" rx="1" fill="#1A2E0E"/>
  <!-- LCD bezel screws -->
  <circle cx="10.5" cy="15.5" r="0.4" fill="#718096"/>
  <circle cx="27.5" cy="15.5" r="0.4" fill="#718096"/>
  <circle cx="10.5" cy="26.5" r="0.4" fill="#718096"/>
  <circle cx="27.5" cy="26.5" r="0.4" fill="#718096"/>
  <!-- 7-segment digit definition (all segments lit = 8) -->
  <defs>
    <g id="seg8" fill="#48BB78">
      <!-- a: top -->
      <polygon points="0.4,0.4 0.8,0 3.2,0 3.6,0.4 3.2,0.8 0.8,0.8"/>
      <!-- b: top-right -->
      <polygon points="3.6,0.8 4,1.2 4,3.2 3.6,3.6 3.2,3.2 3.2,1.2"/>
      <!-- c: bottom-right -->
      <polygon points="3.6,4.4 4,4.8 4,6.8 3.6,7.2 3.2,6.8 3.2,4.8"/>
      <!-- d: bottom -->
      <polygon points="0.4,7.6 0.8,7.2 3.2,7.2 3.6,7.6 3.2,8 0.8,8"/>
      <!-- e: bottom-left -->
      <polygon points="0.4,4.4 0.8,4.8 0.8,6.8 0.4,7.2 0,6.8 0,4.8"/>
      <!-- f: top-left -->
      <polygon points="0.4,0.8 0.8,1.2 0.8,3.2 0.4,3.6 0,3.2 0,1.2"/>
      <!-- g: middle -->
      <polygon points="0.4,4 0.8,3.6 3.2,3.6 3.6,4 3.2,4.4 0.8,4.4"/>
    </g>
  </defs>
  <!-- Dim background segments (off) for realism -->
  <g fill="#0F1F08" opacity="0.5">
    <use href="#seg8" x="12.5" y="17"/>
    <use href="#seg8" x="17" y="17"/>
    <use href="#seg8" x="21.5" y="17"/>
  </g>
  <!-- Bright lit segments showing "88.8" -->
  <g fill="#5CFF5C">
    <use href="#seg8" x="12.5" y="17"/>
    <use href="#seg8" x="17" y="17"/>
    <use href="#seg8" x="21.5" y="17"/>
  </g>
  <!-- Gauge outer ring (right) -->
  <circle cx="44" cy="19" r="9" fill="#2D3748" stroke="#4A5568" stroke-width="1"/>
  <circle cx="44" cy="19" r="7" fill="#0D1117"/>
  <!-- Gauge tick marks - 11 ticks over 220° (from -110° to +110°, every 22°) -->
  <!-- -110° (lower-left) -->
  <line x1="37.9" y1="21.2" x2="39.3" y2="20.7" stroke="#718096" stroke-width="0.7" stroke-linecap="round"/>
  <!-- -88° -->
  <line x1="37.5" y1="18.8" x2="39.0" y2="18.8" stroke="#718096" stroke-width="0.7" stroke-linecap="round"/>
  <!-- -66° -->
  <line x1="38.1" y1="16.4" x2="39.4" y2="17.0" stroke="#718096" stroke-width="0.7" stroke-linecap="round"/>
  <!-- -44° -->
  <line x1="39.5" y1="14.3" x2="40.5" y2="15.4" stroke="#718096" stroke-width="0.7" stroke-linecap="round"/>
  <!-- -22° -->
  <line x1="41.6" y1="13.0" x2="42.1" y2="14.4" stroke="#718096" stroke-width="0.7" stroke-linecap="round"/>
  <!-- 0° (top) - main tick, orange -->
  <line x1="44" y1="12.5" x2="44" y2="14" stroke="#E85D04" stroke-width="1" stroke-linecap="round"/>
  <!-- +22° -->
  <line x1="46.4" y1="13.0" x2="45.9" y2="14.4" stroke="#718096" stroke-width="0.7" stroke-linecap="round"/>
  <!-- +44° -->
  <line x1="48.5" y1="14.3" x2="47.5" y2="15.4" stroke="#718096" stroke-width="0.7" stroke-linecap="round"/>
  <!-- +66° -->
  <line x1="49.9" y1="16.4" x2="48.6" y2="17.0" stroke="#718096" stroke-width="0.7" stroke-linecap="round"/>
  <!-- +88° -->
  <line x1="50.5" y1="18.8" x2="49.0" y2="18.8" stroke="#718096" stroke-width="0.7" stroke-linecap="round"/>
  <!-- +110° (lower-right) -->
  <line x1="50.1" y1="21.2" x2="48.7" y2="20.7" stroke="#718096" stroke-width="0.7" stroke-linecap="round"/>
  <!-- Gauge needle - thin, at 30° (between ticks, not overlapping) -->
  <line x1="44" y1="19" x2="46.75" y2="14.24" stroke="#E85D04" stroke-width="0.8" stroke-linecap="round"/>
  <circle cx="44" cy="19" r="1.2" fill="#E85D04"/>

  <!-- ============ MIDDLE SECTION: 3 Knobs row (y=30-40) ============ -->
  <!-- Separator line -->
  <line x1="10" y1="31" x2="54" y2="31" stroke="#2D3748" stroke-width="0.5"/>

  <!-- Knob 1 (left) -->
  <circle cx="18" cy="36" r="4" fill="#4A5568" stroke="#718096" stroke-width="0.8"/>
  <circle cx="18" cy="36" r="2.5" fill="#2D3748"/>
  <line x1="18" y1="33.5" x2="18" y2="35" stroke="#E85D04" stroke-width="1" stroke-linecap="round"/>
  <rect x="14" y="41" width="8" height="1" rx="0.3" fill="#2D3748"/>

  <!-- Knob 2 (center) -->
  <circle cx="32" cy="36" r="4" fill="#4A5568" stroke="#718096" stroke-width="0.8"/>
  <circle cx="32" cy="36" r="2.5" fill="#2D3748"/>
  <line x1="32" y1="33.5" x2="32" y2="35" stroke="#E85D04" stroke-width="1" stroke-linecap="round"/>
  <rect x="28" y="41" width="8" height="1" rx="0.3" fill="#2D3748"/>

  <!-- Knob 3 (right) -->
  <circle cx="46" cy="36" r="4" fill="#4A5568" stroke="#718096" stroke-width="0.8"/>
  <circle cx="46" cy="36" r="2.5" fill="#2D3748"/>
  <line x1="46" y1="33.5" x2="46" y2="35" stroke="#E85D04" stroke-width="1" stroke-linecap="round"/>
  <rect x="42" y="41" width="8" height="1" rx="0.3" fill="#2D3748"/>

  <!-- ============ BOTTOM SECTION: Switches + Slider (y=44-56) ============ -->
  <line x1="10" y1="44" x2="54" y2="44" stroke="#2D3748" stroke-width="0.5"/>

  <!-- 3 Toggle switches (left side, aligned) -->
  <!-- Switch 1 - ON (green) -->
  <rect x="12" y="48" width="6" height="4" rx="1" fill="#2D3748"/>
  <rect x="13" y="46" width="4" height="2" rx="0.5" fill="#48BB78"/>
  <circle cx="15" cy="47" r="0.6" fill="#1A202C"/>

  <!-- Switch 2 - OFF (orange) -->
  <rect x="20" y="48" width="6" height="4" rx="1" fill="#2D3748"/>
  <rect x="21" y="50" width="4" height="2" rx="0.5" fill="#E85D04"/>
  <circle cx="23" cy="51" r="0.6" fill="#1A202C"/>

  <!-- Switch 3 - ON (green) -->
  <rect x="28" y="48" width="6" height="4" rx="1" fill="#2D3748"/>
  <rect x="29" y="46" width="4" height="2" rx="0.5" fill="#48BB78"/>
  <circle cx="31" cy="47" r="0.6" fill="#1A202C"/>

  <!-- Vertical slider (right side) -->
  <rect x="44" y="47" width="3" height="10" rx="1.5" fill="#2D3748"/>
  <rect x="44.5" y="48" width="2" height="3" rx="0.5" fill="#718096"/>
  <circle cx="45.5" cy="54" r="1.8" fill="#4A5568" stroke="#E85D04" stroke-width="0.8"/>

  <!-- Lever (far right) -->
  <rect x="50" y="47" width="2" height="10" rx="1" fill="#4A5568"/>
  <circle cx="51" cy="49" r="2" fill="#E85D04"/>

  <!-- Indicator LED row (very bottom) -->
  <circle cx="14" cy="56" r="1" fill="#48BB78"/>
  <circle cx="19" cy="56" r="1" fill="#4299E1"/>
  <circle cx="24" cy="56" r="1" fill="#E85D04"/>
</svg>
